<?xml version="1.0" encoding="utf-8"?>
<!-- Generator: Adobe Illustrator 25.2.3, SVG Export Plug-In . SVG Version: 6.00 Build 0)  -->
<svg version="1.1" id="Layer_1" xmlns="http://www.w3.org/2000/svg" xmlns:xlink="http://www.w3.org/1999/xlink" x="0px" y="0px"
	 viewBox="0 0 40 40" style="enable-background:new 0 0 40 40;" xml:space="preserve">
<style type="text/css">
	.st0{fill:#FFFFFF;}
</style>
<g>
	<g id="Layer_1_1_">
		<g>
			<path class="st0" d="M7.2,13l-2,3.3c-0.2,0.4-0.6,0.6-1,0.4c-0.4-0.2-0.6-0.6-0.4-1c0-0.1,0.1-0.1,0.1-0.2l2-3.3
				c0.2-0.4,0.6-0.6,1-0.4c0.4,0.2,0.6,0.6,0.4,1C7.3,12.8,7.2,12.9,7.2,13z"/>
			<path class="st0" d="M9.1,15.9l-1.2,2c-0.2,0.4-0.7,0.5-1.1,0.3c-0.4-0.2-0.5-0.7-0.3-1.1l1.2-2c0.2-0.4,0.7-0.5,1.1-0.3
				C9.2,15,9.3,15.5,9.1,15.9L9.1,15.9z"/>
			<path class="st0" d="M12.5,16.2l-2,3.3c-0.2,0.4-0.6,0.6-1,0.4c-0.4-0.2-0.6-0.6-0.4-1c0-0.1,0.1-0.1,0.1-0.2l2-3.3
				c0.2-0.4,0.6-0.6,1-0.4c0.4,0.2,0.6,0.6,0.4,1C12.6,16.1,12.6,16.2,12.5,16.2z"/>
			<path class="st0" d="M14.4,19.2l-1.2,2c-0.2,0.4-0.7,0.5-1.1,0.3c0,0,0,0,0,0c-0.4-0.2-0.5-0.7-0.3-1.1l0,0l1.2-2
				c0.2-0.4,0.7-0.5,1.1-0.3c0,0,0,0,0,0C14.5,18.4,14.7,18.8,14.4,19.2L14.4,19.2z"/>
			<path class="st0" d="M17.9,19.5l-2,3.3c-0.2,0.4-0.7,0.5-1.1,0.3l0,0c-0.4-0.2-0.5-0.7-0.3-1.1c0,0,0,0,0,0l2-3.3
				c0.2-0.4,0.7-0.5,1.1-0.3c0,0,0,0,0,0C18,18.7,18.1,19.2,17.9,19.5L17.9,19.5z"/>
			<path class="st0" d="M19.8,22.5l-1.2,2c-0.2,0.4-0.6,0.6-1,0.4c-0.4-0.2-0.6-0.6-0.4-1c0-0.1,0.1-0.1,0.1-0.2l1.2-2
				c0.3-0.3,0.8-0.4,1.1-0.1C19.8,21.8,19.9,22.1,19.8,22.5z"/>
			<path class="st0" d="M23.2,22.8l-2,3.3c-0.2,0.4-0.7,0.5-1.1,0.3c-0.4-0.2-0.5-0.7-0.3-1.1c0,0,0,0,0,0l2-3.3
				c0.2-0.4,0.7-0.5,1.1-0.3C23.3,22,23.5,22.4,23.2,22.8C23.2,22.8,23.2,22.8,23.2,22.8z"/>
			<path class="st0" d="M25.1,25.8l-1.2,2c-0.2,0.4-0.6,0.6-1,0.4c-0.4-0.2-0.6-0.6-0.4-1c0-0.1,0.1-0.1,0.1-0.2l1.2-2
				c0.3-0.3,0.8-0.4,1.1-0.1C25.2,25,25.3,25.4,25.1,25.8z"/>
			<path class="st0" d="M28.6,26.1l-2,3.3c-0.2,0.4-0.7,0.5-1.1,0.3c0,0,0,0,0,0c-0.4-0.2-0.5-0.7-0.3-1.1l0,0l2-3.3
				c0.2-0.4,0.7-0.5,1.1-0.3h0C28.7,25.2,28.8,25.7,28.6,26.1C28.6,26.1,28.6,26.1,28.6,26.1z"/>
			<path class="st0" d="M30.5,29l-1.2,2c-0.2,0.4-0.7,0.5-1.1,0.3h0c-0.4-0.2-0.5-0.7-0.3-1.1c0,0,0,0,0,0l1.2-2
				c0.2-0.4,0.7-0.5,1.1-0.3c0,0,0,0,0,0C30.6,28.2,30.7,28.7,30.5,29C30.5,29,30.5,29,30.5,29z"/>
			<path class="st0" d="M33.9,29.4l-2,3.3c-0.2,0.4-0.6,0.6-1,0.4c-0.4-0.2-0.6-0.6-0.4-1c0-0.1,0.1-0.1,0.1-0.2l2-3.3
				c0.2-0.4,0.6-0.6,1-0.4c0.4,0.2,0.6,0.6,0.4,1C34,29.3,34,29.3,33.9,29.4z"/>
			<path class="st0" d="M38.8,25.9l-4.9,8c-0.2,0.4-0.7,0.5-1.1,0.3c0,0,0,0,0,0L2,15.3c-0.4-0.2-0.5-0.7-0.3-1.1l0,0l4.9-8
				C6.9,5.8,7.4,5.7,7.8,6c0,0,0,0,0,0l30.8,18.9C38.9,25.1,39.1,25.6,38.8,25.9L38.8,25.9z M33,32.5l4.1-6.7L7.6,7.7l-4.1,6.7
				L33,32.5z"/>
		</g>
	</g>
</g>
</svg>
